<mxfile host="app.diagrams.net" modified="2024-04-01T13:32:55.852Z" agent="Mozilla/5.0 (Macintosh; Intel Mac OS X 10_15_7) AppleWebKit/537.36 (KHTML, like Gecko) Chrome/123.0.0.0 Safari/537.36" etag="vcbJxHSf9Jy2Wm09cmg2" version="24.2.1" type="google">
  <diagram name="LSN" id="oGgIKcy1KZ6UAMiOBFBA">
    <mxGraphModel grid="1" page="1" gridSize="10" guides="1" tooltips="1" connect="1" arrows="1" fold="1" pageScale="1" pageWidth="827" pageHeight="1169" background="#000000" math="0" shadow="0">
      <root>
        <mxCell id="J8uCGS3BcCjM7RrEL_1T-0" />
        <mxCell id="J8uCGS3BcCjM7RrEL_1T-1" parent="J8uCGS3BcCjM7RrEL_1T-0" />
        <mxCell id="0Lq6ei8JvvkG0iNvDyIp-1" value="" style="group" connectable="0" vertex="1" parent="J8uCGS3BcCjM7RrEL_1T-1">
          <mxGeometry x="100" y="54" width="1150" height="510" as="geometry" />
        </mxCell>
        <mxCell id="0Lq6ei8JvvkG0iNvDyIp-28" value="" style="rounded=1;whiteSpace=wrap;html=1;strokeColor=default;" vertex="1" parent="0Lq6ei8JvvkG0iNvDyIp-1">
          <mxGeometry x="-230" y="-34" width="1380" height="544" as="geometry" />
        </mxCell>
        <mxCell id="0Lq6ei8JvvkG0iNvDyIp-2" value="" style="rounded=1;whiteSpace=wrap;html=1;strokeColor=default;" vertex="1" parent="0Lq6ei8JvvkG0iNvDyIp-1">
          <mxGeometry width="970" height="190" as="geometry" />
        </mxCell>
        <mxCell id="0Lq6ei8JvvkG0iNvDyIp-3" value="pg_backup_start" style="rounded=1;whiteSpace=wrap;html=1;" vertex="1" parent="0Lq6ei8JvvkG0iNvDyIp-1">
          <mxGeometry x="75" y="68.83018867924528" width="120" height="51.62264150943396" as="geometry" />
        </mxCell>
        <mxCell id="0Lq6ei8JvvkG0iNvDyIp-4" value="Take a snapshot" style="rounded=1;whiteSpace=wrap;html=1;" vertex="1" parent="0Lq6ei8JvvkG0iNvDyIp-1">
          <mxGeometry x="420" y="68.83018867924528" width="120" height="51.62264150943396" as="geometry" />
        </mxCell>
        <mxCell id="0Lq6ei8JvvkG0iNvDyIp-5" value="pg_backup_stop" style="rounded=1;whiteSpace=wrap;html=1;" vertex="1" parent="0Lq6ei8JvvkG0iNvDyIp-1">
          <mxGeometry x="775" y="68.83018867924528" width="120" height="51.62264150943396" as="geometry" />
        </mxCell>
        <mxCell id="0Lq6ei8JvvkG0iNvDyIp-6" value="" style="rounded=1;whiteSpace=wrap;html=1;strokeColor=default;" vertex="1" parent="0Lq6ei8JvvkG0iNvDyIp-1">
          <mxGeometry x="-200" y="276" width="600" height="190" as="geometry" />
        </mxCell>
        <mxCell id="0Lq6ei8JvvkG0iNvDyIp-15" value="" style="edgeStyle=orthogonalEdgeStyle;rounded=0;orthogonalLoop=1;jettySize=auto;html=1;" edge="1" parent="0Lq6ei8JvvkG0iNvDyIp-1" source="0Lq6ei8JvvkG0iNvDyIp-11" target="0Lq6ei8JvvkG0iNvDyIp-12">
          <mxGeometry relative="1" as="geometry" />
        </mxCell>
        <mxCell id="0Lq6ei8JvvkG0iNvDyIp-11" value="Force full page write" style="rounded=1;whiteSpace=wrap;html=1;" vertex="1" parent="0Lq6ei8JvvkG0iNvDyIp-1">
          <mxGeometry x="-170" y="345.19" width="90" height="51.62" as="geometry" />
        </mxCell>
        <mxCell id="0Lq6ei8JvvkG0iNvDyIp-16" value="" style="edgeStyle=orthogonalEdgeStyle;rounded=0;orthogonalLoop=1;jettySize=auto;html=1;" edge="1" parent="0Lq6ei8JvvkG0iNvDyIp-1" source="0Lq6ei8JvvkG0iNvDyIp-12" target="0Lq6ei8JvvkG0iNvDyIp-13">
          <mxGeometry relative="1" as="geometry" />
        </mxCell>
        <mxCell id="0Lq6ei8JvvkG0iNvDyIp-12" value="Switch to current WAL file" style="rounded=1;whiteSpace=wrap;html=1;" vertex="1" parent="0Lq6ei8JvvkG0iNvDyIp-1">
          <mxGeometry x="-20" y="345.19000000000005" width="90" height="51.62" as="geometry" />
        </mxCell>
        <mxCell id="0Lq6ei8JvvkG0iNvDyIp-17" value="" style="edgeStyle=orthogonalEdgeStyle;rounded=0;orthogonalLoop=1;jettySize=auto;html=1;" edge="1" parent="0Lq6ei8JvvkG0iNvDyIp-1" source="0Lq6ei8JvvkG0iNvDyIp-13" target="0Lq6ei8JvvkG0iNvDyIp-14">
          <mxGeometry relative="1" as="geometry" />
        </mxCell>
        <mxCell id="0Lq6ei8JvvkG0iNvDyIp-13" value="Do a CHECKPOINT" style="rounded=1;whiteSpace=wrap;html=1;" vertex="1" parent="0Lq6ei8JvvkG0iNvDyIp-1">
          <mxGeometry x="130" y="345.19000000000005" width="90" height="51.62" as="geometry" />
        </mxCell>
        <mxCell id="0Lq6ei8JvvkG0iNvDyIp-14" value="Create backup_label file" style="rounded=1;whiteSpace=wrap;html=1;" vertex="1" parent="0Lq6ei8JvvkG0iNvDyIp-1">
          <mxGeometry x="280" y="345.19000000000005" width="90" height="51.62" as="geometry" />
        </mxCell>
        <mxCell id="0Lq6ei8JvvkG0iNvDyIp-9" style="edgeStyle=orthogonalEdgeStyle;rounded=0;orthogonalLoop=1;jettySize=auto;html=1;entryX=0.5;entryY=0;entryDx=0;entryDy=0;" edge="1" parent="0Lq6ei8JvvkG0iNvDyIp-1" source="0Lq6ei8JvvkG0iNvDyIp-3" target="0Lq6ei8JvvkG0iNvDyIp-6">
          <mxGeometry relative="1" as="geometry" />
        </mxCell>
        <mxCell id="0Lq6ei8JvvkG0iNvDyIp-8" value="" style="rounded=1;whiteSpace=wrap;html=1;strokeColor=default;" vertex="1" parent="0Lq6ei8JvvkG0iNvDyIp-1">
          <mxGeometry x="490" y="276" width="600" height="190" as="geometry" />
        </mxCell>
        <mxCell id="0Lq6ei8JvvkG0iNvDyIp-23" value="" style="edgeStyle=orthogonalEdgeStyle;rounded=0;orthogonalLoop=1;jettySize=auto;html=1;" edge="1" parent="0Lq6ei8JvvkG0iNvDyIp-1" source="0Lq6ei8JvvkG0iNvDyIp-18" target="0Lq6ei8JvvkG0iNvDyIp-19">
          <mxGeometry relative="1" as="geometry" />
        </mxCell>
        <mxCell id="0Lq6ei8JvvkG0iNvDyIp-18" value="Reset to non full page if needed" style="rounded=1;whiteSpace=wrap;html=1;" vertex="1" parent="0Lq6ei8JvvkG0iNvDyIp-1">
          <mxGeometry x="530" y="336.00000000000006" width="90" height="51.62" as="geometry" />
        </mxCell>
        <mxCell id="0Lq6ei8JvvkG0iNvDyIp-24" value="" style="edgeStyle=orthogonalEdgeStyle;rounded=0;orthogonalLoop=1;jettySize=auto;html=1;" edge="1" parent="0Lq6ei8JvvkG0iNvDyIp-1" source="0Lq6ei8JvvkG0iNvDyIp-19" target="0Lq6ei8JvvkG0iNvDyIp-20">
          <mxGeometry relative="1" as="geometry" />
        </mxCell>
        <mxCell id="0Lq6ei8JvvkG0iNvDyIp-19" value="Write WAL record for backup end" style="rounded=1;whiteSpace=wrap;html=1;" vertex="1" parent="0Lq6ei8JvvkG0iNvDyIp-1">
          <mxGeometry x="640" y="336.00000000000006" width="90" height="51.62" as="geometry" />
        </mxCell>
        <mxCell id="0Lq6ei8JvvkG0iNvDyIp-25" value="" style="edgeStyle=orthogonalEdgeStyle;rounded=0;orthogonalLoop=1;jettySize=auto;html=1;" edge="1" parent="0Lq6ei8JvvkG0iNvDyIp-1" source="0Lq6ei8JvvkG0iNvDyIp-20" target="0Lq6ei8JvvkG0iNvDyIp-21">
          <mxGeometry relative="1" as="geometry" />
        </mxCell>
        <mxCell id="0Lq6ei8JvvkG0iNvDyIp-20" value="Switch WAL file" style="rounded=1;whiteSpace=wrap;html=1;" vertex="1" parent="0Lq6ei8JvvkG0iNvDyIp-1">
          <mxGeometry x="750" y="336" width="90" height="51.62" as="geometry" />
        </mxCell>
        <mxCell id="0Lq6ei8JvvkG0iNvDyIp-26" value="" style="edgeStyle=orthogonalEdgeStyle;rounded=0;orthogonalLoop=1;jettySize=auto;html=1;" edge="1" parent="0Lq6ei8JvvkG0iNvDyIp-1" source="0Lq6ei8JvvkG0iNvDyIp-21" target="0Lq6ei8JvvkG0iNvDyIp-22">
          <mxGeometry relative="1" as="geometry" />
        </mxCell>
        <mxCell id="0Lq6ei8JvvkG0iNvDyIp-21" value="Create backup history file" style="rounded=1;whiteSpace=wrap;html=1;" vertex="1" parent="0Lq6ei8JvvkG0iNvDyIp-1">
          <mxGeometry x="860" y="336" width="90" height="51.62" as="geometry" />
        </mxCell>
        <mxCell id="0Lq6ei8JvvkG0iNvDyIp-22" value="Delete backup label file" style="rounded=1;whiteSpace=wrap;html=1;" vertex="1" parent="0Lq6ei8JvvkG0iNvDyIp-1">
          <mxGeometry x="970" y="336" width="90" height="51.62" as="geometry" />
        </mxCell>
        <mxCell id="0Lq6ei8JvvkG0iNvDyIp-27" style="edgeStyle=orthogonalEdgeStyle;rounded=0;orthogonalLoop=1;jettySize=auto;html=1;entryX=0.691;entryY=-0.003;entryDx=0;entryDy=0;entryPerimeter=0;" edge="1" parent="0Lq6ei8JvvkG0iNvDyIp-1" source="0Lq6ei8JvvkG0iNvDyIp-5" target="0Lq6ei8JvvkG0iNvDyIp-8">
          <mxGeometry relative="1" as="geometry" />
        </mxCell>
      </root>
    </mxGraphModel>
  </diagram>
</mxfile>
